<?xml version="1.0" encoding="UTF-8" standalone="no"?>
<!-- Created with Inkscape (http://www.inkscape.org/) -->

<svg
   xmlns:dc="http://purl.org/dc/elements/1.1/"
   xmlns:cc="http://creativecommons.org/ns#"
   xmlns:rdf="http://www.w3.org/1999/02/22-rdf-syntax-ns#"
   xmlns:svg="http://www.w3.org/2000/svg"
   xmlns="http://www.w3.org/2000/svg"
   xmlns:sodipodi="http://sodipodi.sourceforge.net/DTD/sodipodi-0.dtd"
   xmlns:inkscape="http://www.inkscape.org/namespaces/inkscape"
   width="210mm"
   height="297mm"
   viewBox="0 0 744.09448819 1052.3622047"
   id="svg2"
   version="1.1"
   inkscape:version="0.91 r"
   sodipodi:docname="slime.svg">
  <defs
     id="defs4" />
  <sodipodi:namedview
     id="base"
     pagecolor="#ffffff"
     bordercolor="#666666"
     borderopacity="1.0"
     inkscape:pageopacity="0.0"
     inkscape:pageshadow="2"
     inkscape:zoom="0.56400295"
     inkscape:cx="149.4612"
     inkscape:cy="683.4712"
     inkscape:document-units="px"
     inkscape:current-layer="layer1"
     showgrid="false"
     inkscape:window-width="1366"
     inkscape:window-height="706"
     inkscape:window-x="0"
     inkscape:window-y="36"
     inkscape:window-maximized="1" />
  <metadata
     id="metadata7">
    <rdf:RDF>
      <cc:Work
         rdf:about="">
        <dc:format>image/svg+xml</dc:format>
        <dc:type
           rdf:resource="http://purl.org/dc/dcmitype/StillImage" />
        <dc:title />
      </cc:Work>
    </rdf:RDF>
  </metadata>
  <g
     inkscape:label="Layer 1"
     inkscape:groupmode="layer"
     id="layer1">
    <g
       id="g4588"
       inkscape:export-xdpi="25.306561"
       inkscape:export-ydpi="25.306561">
      <path
         inkscape:connector-curvature="0"
         id="path4226"
         d="M 169.44214,16.750236 C 94.67786,22.000418 228.13,55.455593 146.67428,55.455593"
         style="fill:none;fill-rule:evenodd;stroke:#000000;stroke-width:10;stroke-linecap:round;stroke-linejoin:miter;stroke-miterlimit:4;stroke-dasharray:none;stroke-opacity:1" />
      <path
         sodipodi:nodetypes="sssss"
         inkscape:connector-curvature="0"
         id="path4136"
         d="m 332.59274,254.02602 c -10e-6,87.58902 -71.00493,92.93402 -158.59395,92.93402 -87.58902,0 -158.59394,-5.345 -158.59395,-92.93402 0,-87.58902 71.00493,-203.040657 158.59395,-203.040657 87.58902,0 158.59395,115.451637 158.59395,203.040657 z"
         style="opacity:1;fill:#24d26a;fill-opacity:1;stroke:#000000;stroke-width:10;stroke-linecap:butt;stroke-linejoin:miter;stroke-miterlimit:4;stroke-dasharray:none;stroke-opacity:1" />
      <path
         id="path4139"
         d="m 173.99906,50.985127 c -87.58902,0 -158.59375,115.451993 -158.59375,203.041013 10e-6,48.99113 22.21821,72.247 57.12305,83.23437 A 204.05081,196.47467 0 0 1 45.71,240.38942 204.05081,196.47467 0 0 1 190.92875,52.434346 c -5.56328,-0.944791 -11.2098,-1.449219 -16.92969,-1.449219 z"
         style="opacity:1;fill:#ffffff;fill-opacity:0.35828875;stroke:none;stroke-width:5;stroke-linecap:square;stroke-linejoin:miter;stroke-miterlimit:4;stroke-dasharray:none;stroke-opacity:1"
         inkscape:connector-curvature="0" />
      <ellipse
         style="opacity:1;fill:#656565;fill-opacity:0.56684493;stroke:none;stroke-width:5;stroke-linecap:square;stroke-linejoin:miter;stroke-miterlimit:4;stroke-dasharray:none;stroke-opacity:1"
         id="ellipse4175"
         cx="22.564451"
         cy="241.53362"
         rx="10.657365"
         ry="15.657365"
         transform="matrix(0.44888938,-0.89358733,0.89358733,0.44888938,0,0)" />
      <ellipse
         transform="matrix(0.44888938,-0.89358733,0.89358733,0.44888938,0,0)"
         ry="15.657365"
         rx="10.657365"
         cy="240.01509"
         cx="23.200483"
         id="path4155"
         style="opacity:1;fill:#ffffff;fill-opacity:0.56684493;stroke:none;stroke-width:5;stroke-linecap:square;stroke-linejoin:miter;stroke-miterlimit:4;stroke-dasharray:none;stroke-opacity:1" />
      <ellipse
         transform="matrix(0.44888938,-0.89358733,0.89358733,0.44888938,0,0)"
         ry="7.2634063"
         rx="4.9439211"
         cy="275.63394"
         cx="18.487196"
         id="ellipse4177"
         style="opacity:1;fill:#656565;fill-opacity:0.56684493;stroke:none;stroke-width:5;stroke-linecap:square;stroke-linejoin:miter;stroke-miterlimit:4;stroke-dasharray:none;stroke-opacity:1" />
      <ellipse
         style="opacity:1;fill:#ffffff;fill-opacity:0.56684493;stroke:none;stroke-width:5;stroke-linecap:square;stroke-linejoin:miter;stroke-miterlimit:4;stroke-dasharray:none;stroke-opacity:1"
         id="ellipse4179"
         cx="18.782248"
         cy="274.9295"
         rx="4.9439211"
         ry="7.2634063"
         transform="matrix(0.44888938,-0.89358733,0.89358733,0.44888938,0,0)" />
      <g
         transform="translate(-2.5850369,0)"
         id="g4355">
        <g
           id="g4191"
           transform="translate(-115.915,-5.3664354)">
          <circle
             style="opacity:1;fill:#ffffff;fill-opacity:0.66844925;stroke:none;stroke-width:5;stroke-linecap:square;stroke-linejoin:miter;stroke-miterlimit:4;stroke-dasharray:none;stroke-opacity:1"
             id="circle4165"
             cx="246.41061"
             cy="186.58664"
             r="21.785715" />
          <circle
             r="21.785715"
             cy="185.57649"
             cx="244.64285"
             id="path4159"
             style="opacity:1;fill:#000000;fill-opacity:1;stroke:none;stroke-width:5;stroke-linecap:square;stroke-linejoin:miter;stroke-miterlimit:4;stroke-dasharray:none;stroke-opacity:1" />
          <circle
             style="opacity:1;fill:#ffffff;fill-opacity:1;stroke:none;stroke-width:5;stroke-linecap:square;stroke-linejoin:miter;stroke-miterlimit:4;stroke-dasharray:none;stroke-opacity:1"
             id="circle4161"
             cx="254.49184"
             cy="195.67801"
             r="3.3504312" />
          <circle
             r="9.4113464"
             cy="181.03078"
             cx="237.31921"
             id="circle4163"
             style="opacity:1;fill:#ffffff;fill-opacity:1;stroke:none;stroke-width:5;stroke-linecap:square;stroke-linejoin:miter;stroke-miterlimit:4;stroke-dasharray:none;stroke-opacity:1" />
        </g>
        <g
           id="g4197"
           transform="translate(-21.970813,-5.3664354)">
          <circle
             r="21.785715"
             cy="186.58664"
             cx="246.41061"
             id="circle4199"
             style="opacity:1;fill:#ffffff;fill-opacity:0.66844925;stroke:none;stroke-width:5;stroke-linecap:square;stroke-linejoin:miter;stroke-miterlimit:4;stroke-dasharray:none;stroke-opacity:1" />
          <circle
             style="opacity:1;fill:#000000;fill-opacity:1;stroke:none;stroke-width:5;stroke-linecap:square;stroke-linejoin:miter;stroke-miterlimit:4;stroke-dasharray:none;stroke-opacity:1"
             id="circle4201"
             cx="244.64285"
             cy="185.57649"
             r="21.785715" />
          <circle
             r="3.3504312"
             cy="195.67801"
             cx="254.49184"
             id="circle4203"
             style="opacity:1;fill:#ffffff;fill-opacity:1;stroke:none;stroke-width:5;stroke-linecap:square;stroke-linejoin:miter;stroke-miterlimit:4;stroke-dasharray:none;stroke-opacity:1" />
          <circle
             style="opacity:1;fill:#ffffff;fill-opacity:1;stroke:none;stroke-width:5;stroke-linecap:square;stroke-linejoin:miter;stroke-miterlimit:4;stroke-dasharray:none;stroke-opacity:1"
             id="circle4205"
             cx="237.31921"
             cy="181.03078"
             r="9.4113464" />
        </g>
      </g>
      <g
         id="g4545">
        <path
           sodipodi:nodetypes="sssss"
           inkscape:connector-curvature="0"
           id="path4216"
           d="m 202.51302,262.17528 c 0,15.0839 -12.22791,27.31181 -27.31181,27.31181 -15.0839,0 -27.31182,-12.22791 -27.31182,-27.31181 0,-15.0839 12.22792,-12.15953 27.31182,-12.15953 15.0839,0 27.31181,-2.92437 27.31181,12.15953 z"
           style="opacity:1;fill:#ffffff;fill-opacity:0.36363639;stroke:none;stroke-width:5;stroke-linecap:square;stroke-linejoin:miter;stroke-miterlimit:4;stroke-dasharray:none;stroke-opacity:1" />
        <path
           style="opacity:1;fill:#000000;fill-opacity:1;stroke:none;stroke-width:5;stroke-linecap:square;stroke-linejoin:miter;stroke-miterlimit:4;stroke-dasharray:none;stroke-opacity:1"
           d="m 200.10818,261.63863 c 0,15.0839 -12.22791,27.31181 -27.31181,27.31181 -15.0839,0 -27.31182,-12.22791 -27.31182,-27.31181 0,-15.0839 12.22792,-12.15953 27.31182,-12.15953 15.0839,0 27.31181,-2.92437 27.31181,12.15953 z"
           id="path4207"
           inkscape:connector-curvature="0"
           sodipodi:nodetypes="sssss" />
        <path
           style="opacity:1;fill:#d42c2c;fill-opacity:1;stroke:none;stroke-width:5;stroke-linecap:square;stroke-linejoin:miter;stroke-miterlimit:4;stroke-dasharray:none;stroke-opacity:1"
           d="m 173.40356,270.5846 a 25.301816,12.650908 0 0 0 -18.61154,4.10362 c 3.35586,6.43719 10.08571,10.83455 17.84751,10.83455 8.00816,0 14.92259,-4.679 18.16118,-11.45183 a 25.301816,12.650908 0 0 0 -17.39715,-3.48634 z"
           id="path4210"
           inkscape:connector-curvature="0" />
      </g>
    </g>
    <g
       id="g5019"
       inkscape:export-xdpi="25.395685"
       inkscape:export-ydpi="25.395685">
      <path
         style="fill:none;fill-rule:evenodd;stroke:#000000;stroke-width:10;stroke-linecap:round;stroke-linejoin:miter;stroke-miterlimit:4;stroke-dasharray:none;stroke-opacity:1"
         d="m 525.77345,16.750236 c -74.76428,5.250182 58.68786,38.705357 -22.76786,38.705357"
         id="path4252"
         inkscape:connector-curvature="0" />
      <path
         style="opacity:1;fill:#24d26a;fill-opacity:1;stroke:#000000;stroke-width:10;stroke-linecap:butt;stroke-linejoin:miter;stroke-miterlimit:4;stroke-dasharray:none;stroke-opacity:1"
         d="m 688.92405,254.02602 c -10e-6,87.58902 -71.00493,92.93402 -158.59395,92.93402 -87.58902,0 -158.59394,-5.345 -158.59395,-92.93402 0,-87.58902 71.00493,-203.040657 158.59395,-203.040657 87.58902,0 158.59395,115.451637 158.59395,203.040657 z"
         id="path4254"
         inkscape:connector-curvature="0"
         sodipodi:nodetypes="sssss" />
      <path
         inkscape:connector-curvature="0"
         style="opacity:1;fill:#ffffff;fill-opacity:0.35828875;stroke:none;stroke-width:5;stroke-linecap:square;stroke-linejoin:miter;stroke-miterlimit:4;stroke-dasharray:none;stroke-opacity:1"
         d="m 530.33037,50.985127 c -87.58902,0 -158.59375,115.451993 -158.59375,203.041013 10e-6,48.99113 22.21821,72.247 57.12305,83.23437 A 204.05081,196.47467 0 0 1 402.04131,240.38942 204.05081,196.47467 0 0 1 547.26006,52.434346 c -5.56328,-0.944791 -11.2098,-1.449219 -16.92969,-1.449219 z"
         id="path4256" />
      <ellipse
         transform="matrix(0.44888938,-0.89358733,0.89358733,0.44888938,0,0)"
         ry="15.657365"
         rx="10.657365"
         cy="559.94678"
         cx="182.51779"
         id="ellipse4258"
         style="opacity:1;fill:#656565;fill-opacity:0.56684493;stroke:none;stroke-width:5;stroke-linecap:square;stroke-linejoin:miter;stroke-miterlimit:4;stroke-dasharray:none;stroke-opacity:1" />
      <ellipse
         style="opacity:1;fill:#ffffff;fill-opacity:0.56684493;stroke:none;stroke-width:5;stroke-linecap:square;stroke-linejoin:miter;stroke-miterlimit:4;stroke-dasharray:none;stroke-opacity:1"
         id="ellipse4260"
         cx="183.15382"
         cy="558.42822"
         rx="10.657365"
         ry="15.657365"
         transform="matrix(0.44888938,-0.89358733,0.89358733,0.44888938,0,0)" />
      <ellipse
         style="opacity:1;fill:#656565;fill-opacity:0.56684493;stroke:none;stroke-width:5;stroke-linecap:square;stroke-linejoin:miter;stroke-miterlimit:4;stroke-dasharray:none;stroke-opacity:1"
         id="ellipse4272"
         cx="178.44054"
         cy="594.04706"
         rx="4.9439211"
         ry="7.2634063"
         transform="matrix(0.44888938,-0.89358733,0.89358733,0.44888938,0,0)" />
      <ellipse
         transform="matrix(0.44888938,-0.89358733,0.89358733,0.44888938,0,0)"
         ry="7.2634063"
         rx="4.9439211"
         cy="593.34265"
         cx="178.7356"
         id="ellipse4274"
         style="opacity:1;fill:#ffffff;fill-opacity:0.56684493;stroke:none;stroke-width:5;stroke-linecap:square;stroke-linejoin:miter;stroke-miterlimit:4;stroke-dasharray:none;stroke-opacity:1" />
      <path
         style="fill:none;fill-rule:evenodd;stroke:#ffffff;stroke-width:10;stroke-linecap:round;stroke-linejoin:round;stroke-miterlimit:4;stroke-dasharray:none;stroke-opacity:0.50802141"
         d="m 467.35827,169.76403 41.32155,22.53903 -41.32155,0"
         id="path5015"
         inkscape:connector-curvature="0" />
      <path
         inkscape:connector-curvature="0"
         id="path4312"
         d="m 465.16424,168.5103 41.32155,22.53903 -41.32155,0"
         style="fill:none;fill-rule:evenodd;stroke:#000000;stroke-width:10;stroke-linecap:round;stroke-linejoin:round;stroke-miterlimit:4;stroke-dasharray:none;stroke-opacity:1" />
      <path
         inkscape:connector-curvature="0"
         id="path5017"
         d="m 597.06311,169.76403 -41.32155,22.53903 41.32155,0"
         style="fill:none;fill-rule:evenodd;stroke:#ffffff;stroke-width:10;stroke-linecap:round;stroke-linejoin:round;stroke-miterlimit:4;stroke-dasharray:none;stroke-opacity:0.43315507" />
      <path
         style="fill:none;fill-rule:evenodd;stroke:#000000;stroke-width:10;stroke-linecap:round;stroke-linejoin:round;stroke-miterlimit:4;stroke-dasharray:none;stroke-opacity:1"
         d="m 595.49595,168.5103 -41.32155,22.53903 41.32155,0"
         id="path4314"
         inkscape:connector-curvature="0" />
      <g
         transform="translate(356.33131,0)"
         id="g4564">
        <path
           style="opacity:1;fill:#ffffff;fill-opacity:0.36363639;stroke:none;stroke-width:5;stroke-linecap:square;stroke-linejoin:miter;stroke-miterlimit:4;stroke-dasharray:none;stroke-opacity:1"
           d="m 202.51302,262.17528 c 0,15.0839 -12.22791,27.31181 -27.31181,27.31181 -15.0839,0 -27.31182,-12.22791 -27.31182,-27.31181 0,-15.0839 12.22792,-12.15953 27.31182,-12.15953 15.0839,0 27.31181,-2.92437 27.31181,12.15953 z"
           id="path4566"
           inkscape:connector-curvature="0"
           sodipodi:nodetypes="sssss" />
        <path
           sodipodi:nodetypes="sssss"
           inkscape:connector-curvature="0"
           id="path4568"
           d="m 200.10818,261.63863 c 0,15.0839 -12.22791,27.31181 -27.31181,27.31181 -15.0839,0 -27.31182,-12.22791 -27.31182,-27.31181 0,-15.0839 12.22792,-12.15953 27.31182,-12.15953 15.0839,0 27.31181,-2.92437 27.31181,12.15953 z"
           style="opacity:1;fill:#000000;fill-opacity:1;stroke:none;stroke-width:5;stroke-linecap:square;stroke-linejoin:miter;stroke-miterlimit:4;stroke-dasharray:none;stroke-opacity:1" />
        <path
           inkscape:connector-curvature="0"
           id="path4570"
           d="m 173.40356,270.5846 a 25.301816,12.650908 0 0 0 -18.61154,4.10362 c 3.35586,6.43719 10.08571,10.83455 17.84751,10.83455 8.00816,0 14.92259,-4.679 18.16118,-11.45183 a 25.301816,12.650908 0 0 0 -17.39715,-3.48634 z"
           style="opacity:1;fill:#d42c2c;fill-opacity:1;stroke:none;stroke-width:5;stroke-linecap:square;stroke-linejoin:miter;stroke-miterlimit:4;stroke-dasharray:none;stroke-opacity:1" />
      </g>
    </g>
    <g
       id="g4950"
       inkscape:export-xdpi="25.306561"
       inkscape:export-ydpi="25.306561">
      <path
         style="fill:none;fill-rule:evenodd;stroke:#000000;stroke-width:10;stroke-linecap:round;stroke-linejoin:miter;stroke-miterlimit:4;stroke-dasharray:none;stroke-opacity:1"
         d="M 169.44214,377.82415 C 94.67786,383.07433 228.13,416.5295 146.67428,416.5295"
         id="path4614"
         inkscape:connector-curvature="0" />
      <path
         style="opacity:1;fill:#24d26a;fill-opacity:1;stroke:#000000;stroke-width:10;stroke-linecap:butt;stroke-linejoin:miter;stroke-miterlimit:4;stroke-dasharray:none;stroke-opacity:1"
         d="m 332.59274,615.09993 c -10e-6,87.58902 -71.00493,92.93402 -158.59395,92.93402 -87.58902,0 -158.59394,-5.345 -158.59395,-92.93402 0,-87.58902 71.00493,-203.04066 158.59395,-203.04066 87.58902,0 158.59395,115.45164 158.59395,203.04066 z"
         id="path4616"
         inkscape:connector-curvature="0"
         sodipodi:nodetypes="sssss" />
      <path
         inkscape:connector-curvature="0"
         style="opacity:1;fill:#ffffff;fill-opacity:0.35828875;stroke:none;stroke-width:5;stroke-linecap:square;stroke-linejoin:miter;stroke-miterlimit:4;stroke-dasharray:none;stroke-opacity:1"
         d="m 173.99906,412.05904 c -87.58902,0 -158.59375,115.45199 -158.59375,203.04101 10e-6,48.99113 22.21821,72.247 57.12305,83.23437 A 204.05081,196.47467 0 0 1 45.71,601.46333 204.05081,196.47467 0 0 1 190.92875,413.50826 c -5.56328,-0.9448 -11.2098,-1.44922 -16.92969,-1.44922 z"
         id="path4618" />
      <ellipse
         transform="matrix(0.44888938,-0.89358733,0.89358733,0.44888938,0,0)"
         ry="15.657365"
         rx="10.657365"
         cy="403.61584"
         cx="-300.08661"
         id="ellipse4620"
         style="opacity:1;fill:#656565;fill-opacity:0.56684493;stroke:none;stroke-width:5;stroke-linecap:square;stroke-linejoin:miter;stroke-miterlimit:4;stroke-dasharray:none;stroke-opacity:1" />
      <ellipse
         style="opacity:1;fill:#ffffff;fill-opacity:0.56684493;stroke:none;stroke-width:5;stroke-linecap:square;stroke-linejoin:miter;stroke-miterlimit:4;stroke-dasharray:none;stroke-opacity:1"
         id="ellipse4622"
         cx="-299.45059"
         cy="402.09732"
         rx="10.657365"
         ry="15.657365"
         transform="matrix(0.44888938,-0.89358733,0.89358733,0.44888938,0,0)" />
      <ellipse
         style="opacity:1;fill:#656565;fill-opacity:0.56684493;stroke:none;stroke-width:5;stroke-linecap:square;stroke-linejoin:miter;stroke-miterlimit:4;stroke-dasharray:none;stroke-opacity:1"
         id="ellipse4624"
         cx="-304.16388"
         cy="437.71619"
         rx="4.9439211"
         ry="7.2634063"
         transform="matrix(0.44888938,-0.89358733,0.89358733,0.44888938,0,0)" />
      <ellipse
         transform="matrix(0.44888938,-0.89358733,0.89358733,0.44888938,0,0)"
         ry="7.2634063"
         rx="4.9439211"
         cy="437.01175"
         cx="-303.86884"
         id="ellipse4626"
         style="opacity:1;fill:#ffffff;fill-opacity:0.56684493;stroke:none;stroke-width:5;stroke-linecap:square;stroke-linejoin:miter;stroke-miterlimit:4;stroke-dasharray:none;stroke-opacity:1" />
      <g
         id="g4628"
         transform="translate(-2.5850369,361.07391)">
        <g
           transform="translate(-115.915,-5.3664354)"
           id="g4630">
          <circle
             r="21.785715"
             cy="186.58664"
             cx="246.41061"
             id="circle4632"
             style="opacity:1;fill:#ffffff;fill-opacity:0.66844925;stroke:none;stroke-width:5;stroke-linecap:square;stroke-linejoin:miter;stroke-miterlimit:4;stroke-dasharray:none;stroke-opacity:1" />
          <circle
             style="opacity:1;fill:#000000;fill-opacity:1;stroke:none;stroke-width:5;stroke-linecap:square;stroke-linejoin:miter;stroke-miterlimit:4;stroke-dasharray:none;stroke-opacity:1"
             id="circle4634"
             cx="244.64285"
             cy="185.57649"
             r="21.785715" />
          <circle
             r="3.3504312"
             cy="195.67801"
             cx="254.49184"
             id="circle4636"
             style="opacity:1;fill:#ffffff;fill-opacity:1;stroke:none;stroke-width:5;stroke-linecap:square;stroke-linejoin:miter;stroke-miterlimit:4;stroke-dasharray:none;stroke-opacity:1" />
          <circle
             style="opacity:1;fill:#ffffff;fill-opacity:1;stroke:none;stroke-width:5;stroke-linecap:square;stroke-linejoin:miter;stroke-miterlimit:4;stroke-dasharray:none;stroke-opacity:1"
             id="circle4638"
             cx="237.31921"
             cy="181.03078"
             r="9.4113464" />
        </g>
        <g
           transform="translate(-21.970813,-5.3664354)"
           id="g4640">
          <circle
             style="opacity:1;fill:#ffffff;fill-opacity:0.66844925;stroke:none;stroke-width:5;stroke-linecap:square;stroke-linejoin:miter;stroke-miterlimit:4;stroke-dasharray:none;stroke-opacity:1"
             id="circle4642"
             cx="246.41061"
             cy="186.58664"
             r="21.785715" />
          <circle
             r="21.785715"
             cy="185.57649"
             cx="244.64285"
             id="circle4644"
             style="opacity:1;fill:#000000;fill-opacity:1;stroke:none;stroke-width:5;stroke-linecap:square;stroke-linejoin:miter;stroke-miterlimit:4;stroke-dasharray:none;stroke-opacity:1" />
          <circle
             style="opacity:1;fill:#ffffff;fill-opacity:1;stroke:none;stroke-width:5;stroke-linecap:square;stroke-linejoin:miter;stroke-miterlimit:4;stroke-dasharray:none;stroke-opacity:1"
             id="circle4646"
             cx="254.49184"
             cy="195.67801"
             r="3.3504312" />
          <circle
             r="9.4113464"
             cy="181.03078"
             cx="237.31921"
             id="circle4648"
             style="opacity:1;fill:#ffffff;fill-opacity:1;stroke:none;stroke-width:5;stroke-linecap:square;stroke-linejoin:miter;stroke-miterlimit:4;stroke-dasharray:none;stroke-opacity:1" />
        </g>
      </g>
      <path
         style="fill:none;fill-rule:evenodd;stroke:#ffffff;stroke-width:7.60162449;stroke-linecap:round;stroke-linejoin:round;stroke-miterlimit:4;stroke-dasharray:none;stroke-opacity:0.342246;fill-opacity:0.59893048"
         d="m 154.77174,629.90601 21.44334,-15.2486 21.44335,15.2486"
         id="path4948"
         inkscape:connector-curvature="0"
         sodipodi:nodetypes="ccc" />
      <path
         sodipodi:nodetypes="ccc"
         inkscape:connector-curvature="0"
         id="path4684"
         d="m 152.55544,628.79786 21.44334,-15.2486 21.44335,15.2486"
         style="fill:none;fill-rule:evenodd;stroke:#000000;stroke-width:7.60162449;stroke-linecap:round;stroke-linejoin:round;stroke-miterlimit:4;stroke-dasharray:none;stroke-opacity:1" />
      <path
         style="opacity:1;fill:#000000;fill-opacity:0.35294118;stroke:none;stroke-width:10;stroke-linecap:round;stroke-linejoin:round;stroke-miterlimit:4;stroke-dasharray:none;stroke-opacity:1"
         d="m 276.30164,524.70388 c 0,7.56237 -3.78887,9.48191 -8.46267,9.48191 -4.6738,0 -8.46267,-1.91954 -8.46267,-9.48191 0,-7.56237 3.78887,-20.56342 8.46267,-20.56342 4.6738,0 8.46267,13.00105 8.46267,20.56342 z"
         id="path4693"
         inkscape:connector-curvature="0"
         sodipodi:nodetypes="sssss" />
      <path
         sodipodi:nodetypes="sssss"
         inkscape:connector-curvature="0"
         id="path4686"
         d="m 275.19349,523.81736 c 0,7.56237 -3.78887,9.48191 -8.46267,9.48191 -4.6738,0 -8.46267,-1.91954 -8.46267,-9.48191 0,-7.56237 3.78887,-20.56342 8.46267,-20.56342 4.6738,0 8.46267,13.00105 8.46267,20.56342 z"
         style="opacity:1;fill:#a5d9fc;fill-opacity:1;stroke:none;stroke-width:10;stroke-linecap:round;stroke-linejoin:round;stroke-miterlimit:4;stroke-dasharray:none;stroke-opacity:1" />
      <circle
         style="opacity:1;fill:#ffffff;fill-opacity:1;stroke:none;stroke-width:10;stroke-linecap:round;stroke-linejoin:round;stroke-miterlimit:4;stroke-dasharray:none;stroke-opacity:1"
         id="circle4691"
         cx="269.23828"
         cy="527.83344"
         r="3.4477544" />
    </g>
    <g
       id="g4977"
       inkscape:export-xdpi="25.306557"
       inkscape:export-ydpi="25.306557">
      <path
         inkscape:connector-curvature="0"
         id="path4813"
         d="m 529.36933,377.82415 c -74.76428,5.25018 58.68786,38.70535 -22.76786,38.70535"
         style="fill:none;fill-rule:evenodd;stroke:#000000;stroke-width:10;stroke-linecap:round;stroke-linejoin:miter;stroke-miterlimit:4;stroke-dasharray:none;stroke-opacity:1" />
      <path
         sodipodi:nodetypes="sssss"
         inkscape:connector-curvature="0"
         id="path4815"
         d="m 692.51993,615.09993 c -1e-5,87.58902 -71.00493,92.93402 -158.59395,92.93402 -87.58902,0 -158.59394,-5.345 -158.59395,-92.93402 0,-87.58902 71.00493,-203.04066 158.59395,-203.04066 87.58902,0 158.59395,115.45164 158.59395,203.04066 z"
         style="opacity:1;fill:#24d26a;fill-opacity:1;stroke:#000000;stroke-width:10;stroke-linecap:butt;stroke-linejoin:miter;stroke-miterlimit:4;stroke-dasharray:none;stroke-opacity:1" />
      <path
         id="path4817"
         d="m 533.92625,412.05904 c -87.58902,0 -158.59375,115.45199 -158.59375,203.04101 1e-5,48.99113 22.21821,72.247 57.12305,83.23437 A 204.05081,196.47467 0 0 1 405.63719,601.46333 204.05081,196.47467 0 0 1 550.85594,413.50826 c -5.56328,-0.9448 -11.2098,-1.44922 -16.92969,-1.44922 z"
         style="opacity:1;fill:#ffffff;fill-opacity:0.35828875;stroke:none;stroke-width:5;stroke-linecap:square;stroke-linejoin:miter;stroke-miterlimit:4;stroke-dasharray:none;stroke-opacity:1"
         inkscape:connector-curvature="0" />
      <ellipse
         style="opacity:1;fill:#656565;fill-opacity:0.56684493;stroke:none;stroke-width:5;stroke-linecap:square;stroke-linejoin:miter;stroke-miterlimit:4;stroke-dasharray:none;stroke-opacity:1"
         id="ellipse4819"
         cx="-138.51912"
         cy="725.24225"
         rx="10.657365"
         ry="15.657365"
         transform="matrix(0.44888938,-0.89358733,0.89358733,0.44888938,0,0)" />
      <ellipse
         transform="matrix(0.44888938,-0.89358733,0.89358733,0.44888938,0,0)"
         ry="15.657365"
         rx="10.657365"
         cy="723.72369"
         cx="-137.8831"
         id="ellipse4821"
         style="opacity:1;fill:#ffffff;fill-opacity:0.56684493;stroke:none;stroke-width:5;stroke-linecap:square;stroke-linejoin:miter;stroke-miterlimit:4;stroke-dasharray:none;stroke-opacity:1" />
      <ellipse
         transform="matrix(0.44888938,-0.89358733,0.89358733,0.44888938,0,0)"
         ry="7.2634063"
         rx="4.9439211"
         cy="759.34259"
         cx="-142.59639"
         id="ellipse4823"
         style="opacity:1;fill:#656565;fill-opacity:0.56684493;stroke:none;stroke-width:5;stroke-linecap:square;stroke-linejoin:miter;stroke-miterlimit:4;stroke-dasharray:none;stroke-opacity:1" />
      <ellipse
         style="opacity:1;fill:#ffffff;fill-opacity:0.56684493;stroke:none;stroke-width:5;stroke-linecap:square;stroke-linejoin:miter;stroke-miterlimit:4;stroke-dasharray:none;stroke-opacity:1"
         id="ellipse4825"
         cx="-142.30135"
         cy="758.63812"
         rx="4.9439211"
         ry="7.2634063"
         transform="matrix(0.44888938,-0.89358733,0.89358733,0.44888938,0,0)" />
      <path
         sodipodi:nodetypes="ccc"
         inkscape:connector-curvature="0"
         id="path4975"
         d="m 557.56335,614.83461 -21.44334,15.2486 -21.44335,-15.2486"
         style="fill:none;fill-rule:evenodd;stroke:#ffffff;stroke-width:7.60162449;stroke-linecap:round;stroke-linejoin:round;stroke-miterlimit:4;stroke-dasharray:none;stroke-opacity:0.48128343" />
      <path
         style="fill:none;fill-rule:evenodd;stroke:#000000;stroke-width:7.60162449;stroke-linecap:round;stroke-linejoin:round;stroke-miterlimit:4;stroke-dasharray:none;stroke-opacity:1"
         d="m 555.36932,613.58088 -21.44334,15.2486 -21.44335,-15.2486"
         id="path4849"
         inkscape:connector-curvature="0"
         sodipodi:nodetypes="ccc" />
      <g
         transform="translate(-1.801302,0)"
         id="g4920">
        <rect
           ry="5.2115698"
           y="511.82147"
           x="500.9808"
           height="40.119324"
           width="14.417882"
           id="rect4914"
           style="opacity:1;fill:#ffffff;fill-opacity:0.55080213;stroke:none;stroke-width:10;stroke-linecap:round;stroke-linejoin:round;stroke-miterlimit:4;stroke-dasharray:none;stroke-opacity:1" />
        <rect
           style="opacity:1;fill:#000000;fill-opacity:1;stroke:none;stroke-width:10;stroke-linecap:round;stroke-linejoin:round;stroke-miterlimit:4;stroke-dasharray:none;stroke-opacity:1"
           id="rect4904"
           width="14.417882"
           height="40.119324"
           x="499.76184"
           y="511.3782"
           ry="5.2115698" />
        <rect
           style="opacity:1;fill:#ffffff;fill-opacity:0.55080213;stroke:none;stroke-width:10;stroke-linecap:round;stroke-linejoin:round;stroke-miterlimit:4;stroke-dasharray:none;stroke-opacity:1"
           id="rect4916"
           width="14.417882"
           height="40.119324"
           x="557.27484"
           y="511.82147"
           ry="5.2115698" />
        <rect
           ry="5.2115698"
           y="511.3782"
           x="556.05585"
           height="40.119324"
           width="14.417882"
           id="rect4918"
           style="opacity:1;fill:#000000;fill-opacity:1;stroke:none;stroke-width:10;stroke-linecap:round;stroke-linejoin:round;stroke-miterlimit:4;stroke-dasharray:none;stroke-opacity:1" />
      </g>
    </g>
  </g>
</svg>
